<svg xmlns="http://www.w3.org/2000/svg" xmlns:xlink="http://www.w3.org/1999/xlink" id="tiktok" viewBox="0 0 18 18">
  <defs>
    <clipPath id="clip-path">
      <rect id="Rectangle_16686" data-name="Rectangle 16686" width="18" height="18" transform="translate(9 9.004)" fill="none" stroke="#707070" stroke-width="1"/>
    </clipPath>
  </defs>
  <g id="Mask_Group_207" data-name="Mask Group 207" transform="translate(-9 -9.004)" clip-path="url(#clip-path)">
    <g id="Group_38121" data-name="Group 38121" transform="translate(4295.351 2207.054)">
      <path id="Path_43216" data-name="Path 43216" d="M-4278.416-2188.419a6.084,6.084,0,0,0-1.081.01,1.99,1.99,0,0,0-1.581,2.14,2.028,2.028,0,0,0,1.967,1.834,2.007,2.007,0,0,0,2.048-1.7,3.5,3.5,0,0,0,.035-.506q0-4.456,0-8.911v-.332h2.2a3.547,3.547,0,0,0,3.473,3.445c0,.706,0,1.431,0,2.157-.692.153-1.913-.236-3.42-1.1,0,.107-.012.2-.012.29,0,1.534.014,3.069.009,4.6a4.27,4.27,0,0,1-4.374,4.276,4.3,4.3,0,0,1-4.191-3.913,4.264,4.264,0,0,1,3.733-4.523,6.45,6.45,0,0,1,1.014-.005c.061,0,.17.089.17.139C-4278.412-2189.812-4278.416-2189.109-4278.416-2188.419Z" fill="#fff"/>
    </g>
  </g>
</svg>
