<svg xmlns="http://www.w3.org/2000/svg" id="wishList" viewBox="0 0 24 30" x="0px" y="0px"><title>ecommerce 61</title><g data-name="Layer 2"><path d="M12,21.39c.33,0,1.32,0,9.06-7.92a6.47,6.47,0,0,0,1.69-4.58A6.5,6.5,0,0,0,21.06,4.3a5.78,5.78,0,0,0-8.17,0L12,5.19l-.89-.89a5.78,5.78,0,0,0-8.17,0A6.5,6.5,0,0,0,1.25,8.89a6.47,6.47,0,0,0,1.69,4.58C10.68,21.39,11.67,21.39,12,21.39Z"/></g><text x="0" y="39" fill="#000000" font-size="5px" font-weight="bold" font-family="'Helvetica Neue', Helvetica, Arial-Unicode, Arial, Sans-serif">Created by Anggara Putra</text><text x="0" y="44"  font-size="5px" font-weight="bold" font-family="'Helvetica Neue', Helvetica, Arial-Unicode, Arial, Sans-serif">from the Noun Project</text></svg>