<svg xmlns="http://www.w3.org/2000/svg" width="18" height="18" viewBox="0 0 18 18">
    <defs>
        <clipPath id="2pytafgaia">
            <path data-name="Rectangle 15797" style="fill:#fff;stroke:#707070" d="M0 0h18v18H0z"/>
        </clipPath>
    </defs>
    <g data-name="Group 37890">
        <g data-name="Mask Group 84" style="clip-path:url(#2pytafgaia)">
            <g data-name="Group 38103">
                <path data-name="Path 43203" d="M-1657.266 17.753c.121-.947.241-1.174.631-1.132.693.076.53.647.576 1.107h6.3c.125-.928.246-1.166.625-1.095a.858.858 0 0 1 .522.4 1.972 1.972 0 0 1 .065.715h.825a2.87 2.87 0 0 1 2.908 2.942q.007 4.583 0 9.166a2.877 2.877 0 0 1-2.925 2.928q-5.16.008-10.321 0a2.877 2.877 0 0 1-2.927-2.927q-.008-4.6 0-9.2a2.867 2.867 0 0 1 2.869-2.906c.279-.003.554.002.852.002zm-2.563 4.643v7.358a1.742 1.742 0 0 0 1.9 1.879h10.067a1.745 1.745 0 0 0 1.9-1.912v-6.964c0-.116-.01-.233-.016-.361zm2.582-3.448c-1.766-.269-2.8.646-2.543 2.252h13.8c.185-1.665-.868-2.584-2.564-2.24-.033.423.125 1.02-.545 1.049-.758.033-.578-.629-.632-1.069h-6.323c-.051.848-.174 1.074-.576 1.085-.428.011-.564-.225-.616-1.077z" transform="translate(1661.897 -15.705)" style="fill:#97a3bb"/>
                <path data-name="Path 43204" d="m-1642.7 47 3.1-3.1a1.637 1.637 0 0 1 .294-.263.534.534 0 0 1 .695.076.545.545 0 0 1 .086.723.583.583 0 0 1-.092.111q-1.822 1.824-3.648 3.645a.566.566 0 0 1-.863-.012q-1.028-1.012-2.039-2.041a.562.562 0 0 1-.025-.834.563.563 0 0 1 .836.023c.547.536 1.081 1.089 1.656 1.672z" transform="translate(1650.897 -34.661)" style="fill:#97a3bb"/>
            </g>
        </g>
    </g>
</svg>
