<svg xmlns="http://www.w3.org/2000/svg" width="18" height="18" viewBox="0 0 18 18">
    <defs>
        <clipPath id="blnyssrk4a">
            <path data-name="Rectangle 15797" style="fill:#fff;stroke:#707070" d="M0 0h18v18H0z"/>
        </clipPath>
    </defs>
    <g data-name="Group 37889">
        <g data-name="Mask Group 84" style="clip-path:url(#blnyssrk4a)">
            <g data-name="Group 38102">
                <path data-name="Path 43198" d="m-1389.459 112.441-1.244 1.25a1.433 1.433 0 0 1-2.3.038c-.031-.03-.066-.056-.114-.1-.059.043-.113.114-.175.122-.154.019-.355.071-.459 0-.181-.127-.123-.326.025-.48.113-.118.23-.232.346-.348.555-.555 1.111-1.108 1.664-1.665a.652.652 0 0 0 .088-.981.653.653 0 0 0-1 .066c-.388.382-.781.761-1.153 1.159a.836.836 0 0 1-.658.28 2.155 2.155 0 0 0-2.17 1.638 1.226 1.226 0 0 0-.057.418 1.207 1.207 0 0 1-.462 1.048c-.95.914-1.87 1.859-2.806 2.789a.689.689 0 0 1-.316.21.351.351 0 0 1-.3-.133.468.468 0 0 1 0-.356c.04-.1.153-.179.238-.264.925-.925 1.852-1.847 2.771-2.777a.615.615 0 0 0 .2-.349 2.892 2.892 0 0 1 1.889-2.735c-.4-.4-.781-.776-1.162-1.159a1.43 1.43 0 0 1 0-2.254q.912-.915 1.826-1.827l.139-.138c.163-.16.342-.209.512-.027s.1.34-.049.489l-1.71 1.711c-.123.123-.25.243-.369.371a.728.728 0 0 0-.009 1.08c.484.5.982.991 1.478 1.481a.378.378 0 0 0 .6-.012c.378-.377.753-.758 1.134-1.131a1.3 1.3 0 0 1 1.9-.052 1.3 1.3 0 0 1-.056 1.9c-.465.474-.94.937-1.406 1.4.423.636.914.687 1.433.169l6.15-6.148a.793.793 0 0 0 0-1.315q-1.814-1.816-3.63-3.629c-.484-.484-.845-.48-1.338.012l-1.85 1.849c-.062.062-.117.162-.188.175a2.694 2.694 0 0 1-.468.01c.005-.157-.055-.377.026-.461.74-.77 1.486-1.535 2.268-2.262a1.315 1.315 0 0 1 1.818.034q2.019 1.98 4 4a1.362 1.362 0 0 1-.089 1.967c-1.167 1.176-2.345 2.34-3.509 3.519a1.6 1.6 0 0 0-.342.539q-.6 1.569-1.17 3.151a2.971 2.971 0 0 1-2.125 1.984c-.63.171-1.253.367-1.886.528a1.529 1.529 0 0 0-.881.508c-.144.18-.34.273-.532.08s-.088-.362.065-.54a2.01 2.01 0 0 1 1.089-.662 42.097 42.097 0 0 0 2.137-.6 2.078 2.078 0 0 0 1.381-1.208c.318-.761.585-1.542.875-2.315z" transform="translate(1401.695 -101.15)" style="fill:#97a3bb;stroke:#97a3bb;stroke-width:.25px"/>
                <path data-name="Path 43199" d="M-1357.983 125.175a.332.332 0 0 1-.347-.482.977.977 0 0 1 .17-.2q1.57-1.572 3.142-3.141c.069-.068.143-.165.226-.177a.458.458 0 0 1 .347.065.484.484 0 0 1 .068.347c-.006.072-.093.142-.154.2q-1.592 1.6-3.189 3.186a1.971 1.971 0 0 1-.263.202z" transform="translate(1369.948 -116.204)" style="fill:#97a3bb;stroke:#97a3bb;stroke-width:.25px"/>
                <path data-name="Path 43200" d="M-1357.4 111.922a1.16 1.16 0 0 1-1.174 1.153 1.163 1.163 0 0 1-1.137-1.192 1.164 1.164 0 0 1 1.159-1.136 1.162 1.162 0 0 1 1.152 1.175zm-1.165-.519a.512.512 0 0 0-.489.51.51.51 0 0 0 .527.5.5.5 0 0 0 .471-.525.508.508 0 0 0-.506-.488z" transform="translate(1370.951 -108.366)" style="fill:#97a3bb;stroke:#97a3bb;stroke-width:.25px"/>
                <path data-name="Path 43201" d="M-1375.44 126.314a1.684 1.684 0 0 1-.171.267c-.333.342-.673.678-1.011 1.016-.15.15-.322.2-.486.045s-.13-.351.031-.512c.338-.338.665-.687 1.02-1.006a.534.534 0 0 1 .406-.077c.08.015.136.166.211.267z" transform="translate(1384.12 -119.864)" style="fill:#97a3bb;stroke:#97a3bb;stroke-width:.25px"/>
                <path data-name="Path 43202" d="M-1371.885 115.971c-.13.082-.262.232-.388.226a.41.41 0 0 1-.282-.3.418.418 0 0 1 .279-.307c.125-.007.26.146.39.23z" transform="translate(1380.612 -112.01)" style="fill:#97a3bb;stroke:#97a3bb;stroke-width:.25px"/>
            </g>
        </g>
    </g>
</svg>
