<svg xmlns="http://www.w3.org/2000/svg" width="30" height="30" viewBox="0 0 30 30">
    <defs>
        <linearGradient id="ez11ygkwia" x1=".793" y1=".828" x2=".235" y2=".117" gradientUnits="objectBoundingBox">
            <stop offset="0" stop-color="#31c24e"/>
            <stop offset="1" stop-color="#6bff89"/>
        </linearGradient>
        <clipPath id="8q3v1iy7fb">
            <path data-name="Rectangle 870" transform="translate(19207 15840)" style="fill:none;stroke:#707070" d="M0 0h14v14H0z"/>
        </clipPath>
    </defs>
    <g data-name="Group 13024" transform="translate(-19199 -15833)">
        <rect data-name="Rectangle 869" width="30" height="30" rx="15" transform="translate(19199 15833)" style="fill:url(#ez11ygkwia)"/>
        <g data-name="Mask Group 125" transform="translate(0 1)" style="clip-path:url(#8q3v1iy7fb)">
            <g data-name="Group 12871">
                <path data-name="Path 9151" d="M665.639 2351.941c-.081.322-.155.646-.246.965-.144.5-.117.595.3.911.175.132.35.266.511.415a1.169 1.169 0 0 1 .009 1.91c-.166.155-.349.293-.531.432-.4.305-.427.4-.292.89a5.144 5.144 0 0 1 .2.9 1.078 1.078 0 0 1-1.014 1.26 7.752 7.752 0 0 1-.919.057.549.549 0 0 0-.586.413 6.339 6.339 0 0 1-.311.81 1.13 1.13 0 0 1-1.739.558c-.291-.162-.566-.353-.845-.534a.389.389 0 0 0-.465 0c-.249.164-.5.333-.752.484a1.168 1.168 0 0 1-1.876-.6 7.553 7.553 0 0 1-.29-.762.489.489 0 0 0-.51-.361c-.289-.01-.581-.014-.867-.048a1.147 1.147 0 0 1-1.091-1.533c.06-.274.143-.542.22-.813a.485.485 0 0 0-.193-.6c-.152-.1-.294-.222-.438-.338-.97-.783-.972-1.526-.01-2.312a5.067 5.067 0 0 0 .527-.435.5.5 0 0 0 .126-.362c-.049-.311-.152-.612-.221-.919a1.152 1.152 0 0 1 1.094-1.573 6.978 6.978 0 0 1 .815-.043.524.524 0 0 0 .566-.4 6.04 6.04 0 0 1 .245-.667 2.465 2.465 0 0 1 .255-.459 1 1 0 0 1 1.254-.381 6.282 6.282 0 0 1 .931.537c.4.254.5.257.9 0a7.006 7.006 0 0 1 .783-.481 1.055 1.055 0 0 1 1.487.458 5.15 5.15 0 0 1 .392.946.6.6 0 0 0 .641.454 5.4 5.4 0 0 1 1.07.1 1.085 1.085 0 0 1 .87 1.121zm-6.4 3.866c-.328-.329-.629-.636-.934-.939s-.632-.326-.878-.072a.569.569 0 0 0 .077.859q.612.619 1.23 1.23c.372.371.642.372 1.012 0q1.25-1.248 2.5-2.5c.075-.074.153-.146.222-.226a.552.552 0 0 0-.013-.783.561.561 0 0 0-.784 0c-.111.1-.213.21-.318.315z" style="fill:#fff" transform="translate(18554.059 13491.735)"/>
            </g>
        </g>
    </g>
</svg>
