<svg xmlns="http://www.w3.org/2000/svg" id="alert-info" viewBox="0 0 20 20">
    <defs>
        <clipPath id="nuubp1ga7a">
            <path data-name="Rectangle 890" transform="translate(-.334 -.333)" style="fill:none;stroke:#707070" d="M0 0h10v10H0z"/>
        </clipPath>
    </defs>
    <g data-name="Group 13479" transform="translate(-19199 -15833)">
        <rect data-name="Rectangle 869" width="20" height="20" rx="10" transform="translate(19199 15833)" style="opacity:0.3;"/>
        <g data-name="Mask Group 139" transform="translate(19204.334 15838.333)" style="clip-path:url(#nuubp1ga7a)">
            <g data-name="Group 13124">
                <path data-name="Path 9248" d="M-4154.456-3744.885a10.432 10.432 0 0 1-.345 2.795 2.563 2.563 0 0 1-1.572 1.72 7.424 7.424 0 0 1-3.146.5 7.767 7.767 0 0 1-2.075-.351 2.808 2.808 0 0 1-2.063-2.283 10.044 10.044 0 0 1 .032-4.233 2.747 2.747 0 0 1 1.943-2.13 7.954 7.954 0 0 1 3.475-.333 9.051 9.051 0 0 1 1.4.287 2.744 2.744 0 0 1 2.129 2.343c.106.659.178 1.329.222 1.685zm-5.187 1.941c-.062.022-.11.037-.157.056a.456.456 0 0 0-.3.484.415.415 0 0 0 .368.4 9.236 9.236 0 0 0 1.118 0 .419.419 0 0 0 .375-.4.43.43 0 0 0-.295-.483c-.151-.044-.167-.124-.165-.253q.007-.8 0-1.605a.48.48 0 0 0-.534-.529h-.352a.472.472 0 0 0-.512.383.471.471 0 0 0 .339.542c.047.02.108.081.109.124.01.431.007.855.007 1.281zm1.054-3.5a.579.579 0 0 0-.583-.589.577.577 0 0 0-.579.57.582.582 0 0 0 .571.6.582.582 0 0 0 .592-.576z"   transform="translate(4163.828 3749.234)"/>
            </g>
        </g>
    </g>
</svg>
