<svg xmlns="http://www.w3.org/2000/svg" id="alert-warning" viewBox="0 0 20 20">
    <defs>
        <clipPath id="yvbjs74fia">
            <path data-name="Rectangle 890" transform="translate(-.334 -.333)" style="fill:none;stroke:#707070" d="M0 0h10v10H0z"/>
        </clipPath>
    </defs>
    <g data-name="Group 12997" transform="translate(-19199 -15833)">
        <rect data-name="Rectangle 869" width="20" height="20" rx="10" transform="translate(19199 15833)" style="opacity:0.3;"/>
        <g data-name="Mask Group 139" transform="translate(19204.334 15838.333)" style="clip-path:url(#yvbjs74fia)">
            <g data-name="Group 12921">
                <path data-name="Path 9182" d="M-816.726 573.692a3.12 3.12 0 0 0 3.9 3.894v.2a12.816 12.816 0 0 1-.163 2.073 2.1 2.1 0 0 1-.982 1.435 2.337 2.337 0 0 1-1.04.333 15.637 15.637 0 0 1-2.067.115 11.928 11.928 0 0 1-2-.178 2.02 2.02 0 0 1-1.16-.708 2.34 2.34 0 0 1-.529-1.325 14.43 14.43 0 0 1-.091-2.523 12.235 12.235 0 0 1 .161-1.519 2.062 2.062 0 0 1 1.067-1.416 2.317 2.317 0 0 1 .9-.267 15.477 15.477 0 0 1 1.951-.12z" transform="translate(820.904 -572.431)" />
                <path data-name="Path 9183" d="M-738.845 553.72a2.171 2.171 0 0 1 2.166 2.172 2.171 2.171 0 0 1-2.172 2.166 2.171 2.171 0 0 1-2.165-2.172 2.171 2.171 0 0 1 2.171-2.166z" transform="translate(745.993 -553.702)" />
            </g>
        </g>
    </g>
</svg>
