<svg xmlns="http://www.w3.org/2000/svg" viewBox="0 0 20 20" id="chain">
    <defs>
        <clipPath id="o9aj4safia">
            <path data-name="Rectangle 552" style="fill:#797979" d="M0 0h20v20H0z"/>
        </clipPath>
    </defs>
    <g data-name="Group 11264">
        <g data-name="Group 11267" style="clip-path:url(#o9aj4safia)">
            <g data-name="Group 61704">
                <path data-name="Path 25555" d="M-1587.76 263.488a3.793 3.793 0 0 1-3.435-2.4 3.784 3.784 0 0 1 .727-4.33 65.295 65.295 0 0 1 3.241-3.247 3.992 3.992 0 0 1 5.39-.035 1.036 1.036 0 0 1 .205 1.518 1.028 1.028 0 0 1-1.527 0 1.979 1.979 0 0 0-2.794.076q-1.5 1.466-2.968 2.967a1.987 1.987 0 0 0-.038 2.851 2 2 0 0 0 2.88-.02c.48-.462.941-.945 1.417-1.411a1 1 0 0 1 1.467-.069 1 1 0 0 1-.056 1.5c-.485.494-.972.988-1.471 1.469a4.11 4.11 0 0 1-3.038 1.131z" transform="translate(1593.523 -245.412)"/>
                <path data-name="Path 25556" d="M-1521.586 206.846a3.88 3.88 0 0 1-2.728-1.122 1 1 0 0 1-.086-1.437 1.017 1.017 0 0 1 1.443-.039 2 2 0 0 0 2.967-.113c.964-.958 1.931-1.914 2.88-2.887a1.908 1.908 0 0 0 .475-2.094 1.917 1.917 0 0 0-1.652-1.321 1.937 1.937 0 0 0-1.674.595c-.467.458-.923.925-1.388 1.385a1.009 1.009 0 0 1-1.523.087 1.011 1.011 0 0 1 .094-1.5c.477-.484.955-.968 1.443-1.441a4.009 4.009 0 0 1 5.65.016 4 4 0 0 1 .041 5.649 182.299 182.299 0 0 1-3.077 3.079 3.916 3.916 0 0 1-2.865 1.143z" transform="translate(1532.545 -193.793)"/>
            </g>
        </g>
    </g>
</svg>
