<svg xmlns="http://www.w3.org/2000/svg" viewBox="0 0 20 20" id="parkingattendent">
    <defs>
        <clipPath id="oqlmh5y8pa">
            <path data-name="Rectangle 552" style="fill:#797979" d="M0 0h20v20H0z"/>
        </clipPath>
    </defs>
    <g data-name="Group 11264">
        <g data-name="Group 11267" style="clip-path:url(#oqlmh5y8pa)">
            <g data-name="Group 61701">
                <path data-name="Path 25548" d="M-396.575 270.784a3.491 3.491 0 0 1-3.478-3.5 3.5 3.5 0 0 1 3.521-3.488 3.5 3.5 0 0 1 3.476 3.5 3.487 3.487 0 0 1-3.519 3.488zm.02-6.063a2.572 2.572 0 0 0-2.573 2.559 2.588 2.588 0 0 0 2.577 2.6 2.588 2.588 0 0 0 2.573-2.6 2.573 2.573 0 0 0-2.576-2.559z" transform="translate(403.548 -260.759)" style="stroke:#797979;stroke-width:.35px;"/>
                <path data-name="Path 25549" d="M-410.459 306.065c-.091.006-.185.016-.278.017h-.678a5.937 5.937 0 0 1 2.7-4.994 5.931 5.931 0 0 1 6.666.036 5.942 5.942 0 0 1 2.645 4.958h-.711c-.083 0-.166-.014-.246-.021a5.123 5.123 0 0 0-5.05-5 5.128 5.128 0 0 0-5.048 5.004z" transform="translate(412.404 -289.037)" style="stroke:#797979;stroke-width:.35px;"/>
                <path data-name="Path 25550" d="M-365.04 275.851a2.987 2.987 0 0 1 3-2.984 2.985 2.985 0 0 1 2.975 3.011 2.979 2.979 0 0 1-3 2.98 2.983 2.983 0 0 1-2.975-3.007zm2.976 1.951a1.948 1.948 0 0 0 1.96-1.917 1.952 1.952 0 0 0-1.917-1.961 1.959 1.959 0 0 0-1.979 1.935 1.956 1.956 0 0 0 1.935 1.941z" transform="translate(376.259 -267.826)" style="stroke:#797979;stroke-width:.35px;"/>
                <path data-name="Path 25551" d="M-354.43 308h-.937a3.867 3.867 0 0 0-5.346-4.145l-.617-.722a4.656 4.656 0 0 1 4.662.123A4.749 4.749 0 0 1-354.43 308z" transform="translate(373.367 -290.977)" style="stroke:#797979;stroke-width:.35px;"/>
            </g>
        </g>
    </g>
</svg>
