<svg xmlns="http://www.w3.org/2000/svg" viewBox="0 0 20 20" id="smstamplate">
    <defs>
        <clipPath id="arwcnjavfa">
            <path data-name="Rectangle 552" style="fill:#797979" d="M0 0h20v20H0z"/>
        </clipPath>
    </defs>
    <g data-name="Group 11264">
        <g data-name="Group 11267" style="clip-path:url(#arwcnjavfa)">
            <g data-name="Group 61703">
                <path data-name="Path 25552" d="M-1044.765 312.836h5.041a2.833 2.833 0 0 1 2.985 2.984v5.47a2.837 2.837 0 0 1-3.012 2.993h-3.575a1.94 1.94 0 0 0-1.227.409q-1.835 1.4-3.681 2.775c-.22.165-.442.342-.745.2-.323-.153-.361-.433-.356-.75.012-.655.007-1.311 0-1.966 0-.465-.181-.644-.644-.665a2.827 2.827 0 0 1-2.788-2.894q-.008-2.824 0-5.648a2.825 2.825 0 0 1 2.922-2.9c1.696-.011 3.388-.008 5.08-.008zm-3.42 13.149c.173-.124.288-.2.4-.287q1.242-.936 2.482-1.874a3.245 3.245 0 0 1 2.058-.691c1.168.016 2.336.006 3.5 0a1.7 1.7 0 0 0 1.856-1.838v-5.472a1.7 1.7 0 0 0-1.848-1.845h-10.049a1.692 1.692 0 0 0-1.835 1.822v5.507a1.692 1.692 0 0 0 1.762 1.826 1.684 1.684 0 0 1 1.669 1.7c.012.367.005.72.005 1.152z" transform="translate(1054.752 -310.232)" />
                <path data-name="Path 25553" d="M-1035.069 327.1h-3.86c-.471 0-.7-.189-.708-.564s.228-.581.69-.581h7.757c.471 0 .7.189.708.564s-.233.581-.726.581z" transform="translate(1045.061 -319.914)"/>
                <path data-name="Path 25554" d="M-1035.061 339.064h3.932c.472 0 .743.32.628.73-.093.333-.345.417-.662.417q-2.967-.006-5.934 0h-1.895c-.425 0-.655-.22-.646-.589.009-.353.233-.553.645-.554 1.311-.006 2.621-.004 3.932-.004z" transform="translate(1045.061 -329.592)" />
            </g>
        </g>
    </g>
</svg>
