<svg xmlns="http://www.w3.org/2000/svg" viewBox="0 0 20 20" id="smshistory">
    <defs>
        <clipPath id="3786za4eva">
            <path data-name="Rectangle 552" style="fill:#797979" d="M0 0h20v20H0z"/>
        </clipPath>
    </defs>
    <g data-name="Group 11264">
        <g data-name="Group 11267" style="clip-path:url(#3786za4eva)">
            <g data-name="Group 61705">
                <path data-name="Path 25557" d="M-2068.022 432.331v5.765a1.585 1.585 0 0 1-1.778 1.789c-3.727 0-7.454.007-11.181 0a4.643 4.643 0 0 1-4.554-3.777 4.649 4.649 0 0 1 3.717-5.456c.29-.051.341-.163.34-.422q-.012-3.159 0-6.317a1.559 1.559 0 0 1 1.248-1.667 2.175 2.175 0 0 1 .445-.033c2.531 0 5.062 0 7.592-.006a.946.946 0 0 1 .73.307q1.564 1.584 3.148 3.148a.951.951 0 0 1 .3.734c-.011 1.977-.007 3.956-.007 5.935zm-10.009 6.518h8.213c.608 0 .757-.145.757-.748v-11.012c0-.122-.012-.243-.02-.389h-2.683c-.6 0-.746-.152-.747-.759v-2.313c0-.12-.013-.241-.019-.348a.646.646 0 0 0-.1-.027h-7.247c-.381 0-.56.206-.561.629 0 2.14 0 4.281-.005 6.421 0 .2.045.305.274.339a4.6 4.6 0 0 1 1.927.794.952.952 0 0 0 .5.16c1.564.012 3.129.007 4.693.007.679 0 1.357-.006 2.036 0 .46.006.748.434.492.763a.834.834 0 0 1-.583.26c-1.852.019-3.7.011-5.556.011h-.326l.749 2.07h5.189c.486 0 .783.422.524.767a.787.787 0 0 1-.55.257c-1.346.021-2.692.012-4.038.012h-1.213a4.822 4.822 0 0 1-1.706 3.106zm.685-3.581a3.626 3.626 0 0 0-3.541-3.667 3.622 3.622 0 0 0-3.7 3.579 3.627 3.627 0 0 0 3.541 3.667 3.622 3.622 0 0 0 3.699-3.579zm5.9-9.626h1.519l-1.519-1.513z" transform="translate(2086.821 -421.046)" style="stroke:#797979;stroke-width:.2px;"/>
                <path data-name="Path 25558" d="M-2043.731 458.187h3.656c.379 0 .607.193.616.5a.521.521 0 0 1-.585.532c-.862.005-1.725 0-2.587 0h-4.828c-.379 0-.607-.193-.616-.5-.009-.324.225-.532.62-.532 1.24-.002 2.482 0 3.724 0z" transform="translate(2055.836 -450.741)" style="stroke:#797979;stroke-width:.2px;"/>
                <path data-name="Path 25559" d="M-2060.922 483.978c.309 0 .56-.006.81 0a.522.522 0 0 1 .567.517.52.52 0 0 1-.566.516q-.637.012-1.274 0a.51.51 0 0 1-.567-.551q-.019-1 0-2a.515.515 0 0 1 .528-.556.514.514 0 0 1 .5.549c.012.496.002.988.002 1.525z" transform="translate(2067.294 -470.317)" style="stroke:#797979;stroke-width:.2px;"/>
            </g>
        </g>
    </g>
</svg>
