<svg xmlns="http://www.w3.org/2000/svg" viewBox="0 0 20 20" id="ticket-icon">
    <defs>
        <clipPath id="hvutjwwtoa">
            <path data-name="Rectangle 552" style="fill:#797979" d="M0 0h20v20H0z"/>
        </clipPath>
    </defs>
    <g data-name="Group 61709">
        <g data-name="Group 11267" transform="translate(-.001)" style="clip-path:url(#hvutjwwtoa)">
            <g data-name="Group 61700">
                <path data-name="Path 25543" d="M657.882 335.1a1.287 1.287 0 0 1 1.3 1.492v1.973a1.182 1.182 0 0 1-.716 1.154.667.667 0 0 0-.449.616.656.656 0 0 0 .439.622 1.2 1.2 0 0 1 .727 1.183v2.114a1.222 1.222 0 0 1-1.3 1.3h-15.436a1.222 1.222 0 0 1-1.307-1.3v-2.114a1.194 1.194 0 0 1 .724-1.184.654.654 0 0 0 0-1.238 1.2 1.2 0 0 1-.721-1.187v-2.079a1.2 1.2 0 0 1 1.31-1.318 1.365 1.365 0 0 0 1.126-.475c2.188-2.214 4.4-4.408 6.6-6.609a1.278 1.278 0 0 1 2.093-.009c.449.448.893.9 1.347 1.344a1.233 1.233 0 0 1 .342 1.41.643.643 0 0 0 .851.848 1.249 1.249 0 0 1 1.435.368c.434.446.88.881 1.319 1.322a1.318 1.318 0 0 1 .316 1.767zm-3.518 9.394v-8.304h-11.756c-.284 0-.435.047-.423.381.023.633 0 1.268.016 1.9a.48.48 0 0 0 .212.338 1.723 1.723 0 0 1 0 3.078.48.48 0 0 0-.208.341c-.021.61.011 1.221-.018 1.83-.017.367.115.451.463.449 3.78-.011 7.561-.007 11.341-.007zm-5.273-13.856c1.47 1.471 2.912 2.917 4.363 4.353a.586.586 0 0 0 .372.128c.61.013 1.224-.036 1.83.018a1.3 1.3 0 0 0 1.21-.526c.157-.187.164-.3-.009-.467-.464-.449-.908-.918-1.378-1.36a.492.492 0 0 0-.392-.1 1.709 1.709 0 0 1-2.165-2.2.379.379 0 0 0-.054-.307q-.731-.762-1.5-1.492a.322.322 0 0 0-.314 0c-.654.635-1.293 1.286-1.962 1.956zm6.4 5.549v8.313h2.352c.22 0 .283-.1.281-.3-.006-.669.007-1.338-.012-2.007a.444.444 0 0 0-.208-.307 1.719 1.719 0 0 1 0-3.075.445.445 0 0 0 .211-.3c.019-.68.007-1.361.011-2.042 0-.194-.083-.274-.276-.273-.781-.004-1.55-.006-2.363-.006zm-3.546-1.081-3.6-3.605-3.605 3.605z" transform="translate(-640.156 -326.533)"/>
                <path data-name="Path 25544" d="M660.162 378.756h7.907v1.028h-7.907z" transform="translate(-655.437 -367.683)"/>
                <path data-name="Path 25545" d="M660.151 389.562h7.911v1.022h-7.911z" transform="translate(-655.429 -376.36)"/>
                <path data-name="Path 25546" d="M660.114 401.363v-1.013h7.912v1.013z" transform="translate(-655.399 -385.022)"/>
            </g>
        </g>
    </g>
</svg>
