<?xml version="1.0" standalone="no"?>
<!DOCTYPE svg PUBLIC "-//W3C//DTD SVG 20010904//EN"
 "http://www.w3.org/TR/2001/REC-SVG-20010904/DTD/svg10.dtd">
<svg version="1.0" xmlns="http://www.w3.org/2000/svg"
 width="512.000000pt" height="512.000000pt" viewBox="0 0 512.000000 512.000000"
 preserveAspectRatio="xMidYMid meet">

<g transform="translate(0.000000,512.000000) scale(0.100000,-0.100000)"
fill="#000000" stroke="none">
<path d="M2218 5105 c-425 -69 -797 -379 -942 -783 -89 -249 -90 -570 -1 -810
14 -37 27 -71 28 -76 1 -5 -232 -93 -518 -196 -286 -103 -528 -190 -538 -195
-22 -9 -47 -56 -47 -89 0 -59 32 -77 324 -180 l275 -98 3 -607 c3 -595 3 -607
24 -652 51 -110 126 -159 401 -262 383 -144 759 -211 1183 -211 430 0 812 69
1200 217 192 73 283 121 328 172 79 90 76 65 80 742 l3 601 42 15 c23 8 113
40 200 71 l157 55 0 -814 0 -815 -37 -19 c-49 -25 -110 -86 -135 -135 -15 -30
-32 -139 -76 -490 -33 -269 -53 -462 -49 -479 4 -16 21 -36 40 -47 30 -19 52
-20 361 -20 l328 0 34 34 c19 19 34 41 34 50 0 9 -25 215 -55 459 -48 387 -58
448 -81 494 -27 55 -102 130 -141 139 l-23 6 0 895 c0 794 -2 899 -16 928 -8
18 -23 37 -32 41 -9 4 -251 91 -537 194 -286 103 -519 191 -518 196 1 5 16 48
32 96 80 232 82 518 6 753 -132 404 -469 711 -885 806 -114 26 -336 33 -452
14z m427 -214 c354 -88 625 -350 732 -706 25 -83 27 -103 27 -270 0 -168 -2
-186 -28 -270 -86 -283 -263 -498 -516 -625 -389 -196 -848 -122 -1161 189
-212 211 -310 483 -287 798 20 275 170 543 402 715 127 94 261 152 430 184 97
19 297 11 401 -15z m-1193 -1704 c96 -131 265 -270 423 -349 171 -86 331 -122
535 -122 157 0 256 15 390 61 213 73 433 231 562 405 29 38 57 67 64 64 7 -3
186 -67 398 -142 212 -76 383 -141 378 -145 -10 -10 -1775 -639 -1792 -639
-17 0 -1782 629 -1792 639 -6 5 747 284 783 290 3 1 26 -27 51 -62z m260 -836
c372 -132 686 -241 697 -241 12 0 331 110 709 245 377 135 690 245 694 245 12
0 10 -1048 -3 -1093 -5 -20 -21 -44 -34 -53 -41 -27 -199 -92 -337 -139 -627
-215 -1309 -228 -1938 -38 -146 44 -282 94 -388 144 -70 32 -85 43 -97 73 -13
30 -15 122 -15 572 0 512 1 536 18 532 10 -3 322 -114 694 -247z m2859 -1361
c51 -28 61 -116 16 -158 -94 -88 -229 47 -138 139 31 31 83 39 122 19z m-91
-383 c44 -8 66 -7 110 6 30 9 56 14 59 11 3 -2 17 -99 31 -214 l26 -210 -189
0 -189 0 5 32 c4 18 16 115 28 216 22 177 23 183 43 177 12 -4 46 -12 76 -18z"/>
<path d="M2374 4611 c-46 -20 -64 -59 -64 -137 l0 -73 -37 -18 c-57 -26 -119
-96 -142 -159 -41 -109 -21 -219 56 -304 56 -63 101 -86 189 -100 38 -6 80
-19 94 -29 34 -25 49 -84 29 -119 -27 -49 -70 -62 -207 -62 -123 0 -124 0
-153 -29 -39 -40 -40 -89 -1 -132 25 -28 35 -32 100 -37 l72 -5 0 -63 c0 -56
3 -68 29 -96 39 -44 98 -46 138 -5 25 24 28 36 32 108 l3 80 38 19 c20 10 58
42 84 70 103 116 101 278 -6 395 -54 60 -114 89 -202 100 -109 13 -152 95 -87
167 l29 33 146 5 c166 6 183 13 193 87 4 35 1 45 -25 74 -27 31 -35 34 -101
37 l-71 4 0 64 c0 55 -4 68 -27 94 -30 32 -75 45 -109 31z"/>
</g>
</svg>
