<svg xmlns="http://www.w3.org/2000/svg" width="12.681" height="7.308" viewBox="0 0 12.681 7.308">
    <path data-name="Path 7869" d="M701.913 521.14q2.2 2.214 4.418 4.413a.8.8 0 0 0 .077.078.911.911 0 0 0 1.214-1.359q-2.655-2.664-5.323-5.322a.868.868 0 0 0-.11-.116.887.887 0 0 0-1.253.074 436.72 436.72 0 0 0-5.435 5.453 1.237 1.237 0 0 0-.255.809.76.76 0 0 0 .6.7.907.907 0 0 0 .972-.262l3.146-3.148c.532-.53 1.063-1.067 1.623-1.63.142.134.236.22.326.31z" transform="translate(-695.245 -518.61)" style="fill:#141316"/>
</svg>
