<svg width="9" height="16" viewBox="0 0 9 16" fill="none" xmlns="http://www.w3.org/2000/svg">
<path d="M4.00092 14.1557C2.9008 13.9674 1.93727 13.5431 1.10587 12.8087C0.706499 12.4553 0.691653 12.3782 1.0064 11.9492C1.22019 11.6591 1.42952 11.3675 1.64628 11.082C1.84077 10.8259 1.95211 10.812 2.19114 11.0203C2.93198 11.6653 3.75892 12.0973 4.74176 12.1498C5.19309 12.1745 5.61621 12.0773 6.00519 11.8273C6.77275 11.3336 6.83658 10.3183 6.09723 9.77668C5.7335 9.50974 5.30889 9.32767 4.90358 9.12863C4.14344 8.75831 3.35065 8.45125 2.61872 8.03002C1.44585 7.35419 0.835663 6.30033 1.00046 4.87924C1.15486 3.52758 1.97438 2.68973 3.13092 2.16512C3.34025 2.06945 3.56295 1.99385 3.78713 1.95064C3.96974 1.91361 4.00686 1.82566 4.0024 1.65439C3.9935 1.23778 4.0024 0.821175 3.99795 0.404568C3.99498 0.134545 4.10633 -0.00278113 4.37505 0.00184784C4.69722 0.0064768 5.0179 0.00956278 5.33858 0.000304847C5.61176 -0.0074101 5.71865 0.131459 5.71568 0.399939C5.71271 0.794944 5.72459 1.19149 5.71123 1.5865C5.7038 1.79326 5.76616 1.86886 5.96955 1.90281C6.79205 2.04014 7.5507 2.34719 8.21136 2.89187C8.55283 3.17423 8.56916 3.22669 8.36428 3.6109C8.19503 3.92875 8.0243 4.24815 7.85356 4.56601C7.65462 4.93633 7.55367 4.95947 7.22705 4.71259C6.46097 4.13089 5.62512 3.74205 4.65565 3.88246C4.30082 3.93338 3.92966 4.07225 3.63124 4.27593C3.01066 4.69871 2.96464 5.59364 3.55404 6.05808C3.97716 6.39291 4.47304 6.63824 4.95851 6.87586C5.6459 7.21223 6.36892 7.47146 7.04592 7.82634C7.93225 8.29233 8.59292 8.98513 8.74732 10.0606C9.00119 11.8335 8.005 13.4536 6.3422 13.9968C6.14474 14.0616 5.85078 14.0585 5.76764 14.1958C5.66223 14.3702 5.72013 14.6556 5.71568 14.8932C5.70974 15.154 5.71716 15.4132 5.71123 15.674C5.70677 15.8854 5.60136 16.0011 5.39054 15.9996C5.04017 15.998 4.68831 16.0011 4.33793 15.9996C4.09742 15.998 3.99943 15.8591 3.99943 15.6215C4.0024 15.1447 4.00092 14.6664 4.00092 14.1557Z" fill="black"/>
</svg>
