<svg version="1.1" id="Layer_1" xmlns="http://www.w3.org/2000/svg" xmlns:xlink="http://www.w3.org/1999/xlink" x="0px" y="0px"
	 width="100%" viewBox="0 0 608 608" enable-background="new 0 0 608 608" xml:space="preserve">
<path  opacity="1.000000" stroke="none" 
	d="
M134.640900,289.551025 
	C185.842575,266.066895 236.709747,242.748489 287.575073,219.426102 
	C289.712402,218.446121 291.870728,217.662430 294.293549,217.785004 
	C309.590240,218.558853 324.889435,219.283127 340.185913,220.060822 
	C356.976868,220.914490 373.765839,221.806732 390.555542,222.684616 
	C414.985626,223.962006 439.414764,225.256866 463.846222,226.507202 
	C468.669647,226.754028 473.509735,226.709702 478.327332,227.025848 
	C482.706482,227.313232 486.708038,228.507965 487.641876,233.653931 
	C488.565674,238.744476 485.819977,241.707794 481.592255,243.937256 
	C465.681152,252.327911 449.813843,260.801788 433.946930,269.275909 
	C425.647797,273.708282 424.944763,275.697968 428.576355,284.332825 
	C431.286591,290.777008 434.113373,297.172516 436.784271,303.632660 
	C437.517914,305.407166 438.666138,307.156433 438.293762,309.276276 
	C436.078796,310.300171 434.664490,308.653046 433.128632,307.982971 
	C406.972687,296.571167 380.233582,287.020386 351.941010,282.431915 
	C348.690155,281.904694 347.972443,280.501831 349.294891,277.673004 
	C349.906372,276.364990 351.101959,275.194336 350.264404,273.263794 
	C347.769745,273.065582 346.483856,275.086029 345.324493,276.650513 
	C342.931183,279.880096 339.896088,280.712494 336.141113,280.244049 
	C332.842834,279.832611 329.525085,279.533142 326.206909,279.337524 
	C322.318756,279.108276 321.376984,277.002838 322.261139,273.583679 
	C323.609985,268.367462 326.255463,263.728027 328.697815,258.990295 
	C329.494781,257.444275 331.046204,256.067993 330.018372,253.079803 
	C326.713348,255.667603 322.133331,255.551361 320.710938,260.738739 
	C319.723572,264.339752 316.780212,266.419983 312.774841,266.311554 
	C313.290680,272.309479 308.077454,277.584442 302.373718,277.044586 
	C299.395447,276.762665 296.413055,276.470337 293.425903,276.355652 
	C291.600616,276.285645 289.372406,276.291840 289.440704,278.911530 
	C289.503052,281.301941 291.562988,281.531372 293.465546,281.694519 
	C296.780640,281.978790 300.090454,282.324860 303.405579,282.608917 
	C308.269958,283.025726 312.121368,289.433014 310.170288,294.403137 
	C313.959625,294.519196 316.237000,296.634918 317.560974,299.980469 
	C318.431244,302.179565 315.739288,301.953400 315.103241,304.134460 
	C320.704987,303.529510 322.738403,308.832703 326.929932,311.264984 
	C328.346924,308.944733 326.874847,307.434113 326.278931,305.904297 
	C324.223694,300.628418 322.188690,295.358459 321.488068,289.686493 
	C320.785492,283.998840 321.241486,283.471497 326.747925,283.617676 
	C327.747375,283.644226 328.747955,283.702423 329.746490,283.679626 
	C336.371796,283.528351 342.942841,283.430786 346.039246,291.103058 
	C346.320679,291.800415 347.187683,292.284546 347.838623,292.796753 
	C348.056976,292.968567 348.449036,292.919586 348.838196,292.984253 
	C349.518036,290.302521 347.963074,287.828522 347.875214,284.313019 
	C379.888336,290.150330 409.571777,300.604187 437.200287,317.017578 
	C435.742584,320.624023 433.164032,320.799408 430.745728,321.292419 
	C404.246704,326.694366 379.636963,336.191040 359.152588,354.528625 
	C352.792297,360.222321 347.273224,366.651733 342.698517,373.890411 
	C339.401428,379.107483 335.394623,380.361237 329.951538,377.495331 
	C304.627411,364.161621 277.618561,359.319641 249.261871,361.367981 
	C239.967819,362.039368 230.794907,363.672974 221.819427,366.268433 
	C212.399841,368.992310 209.121811,366.965668 207.441879,357.243042 
	C205.490997,345.952454 203.525177,334.663269 201.736740,323.346436 
	C200.974060,318.520264 198.347122,315.961548 193.604156,315.349518 
	C188.492569,314.689972 183.377502,314.051086 178.277679,313.308838 
	C175.092926,312.845337 173.120026,314.071686 172.344604,317.171967 
	C170.787201,323.398834 168.345398,329.489288 173.230713,335.648804 
	C175.472198,338.474884 175.214752,342.514862 173.285629,345.632660 
	C171.384552,348.705170 171.313782,351.814880 171.279831,355.175110 
	C171.192612,363.804932 172.378403,372.474579 170.430801,381.059265 
	C169.752365,384.049591 168.565231,386.782837 166.863861,389.250946 
	C159.640182,399.730042 150.699844,396.755005 142.974457,390.247559 
	C140.130890,387.852295 141.950043,384.824341 144.040970,382.329224 
	C150.349670,374.801056 154.437073,366.126678 157.138428,356.728882 
	C158.073135,353.477112 157.859253,350.809967 155.619522,347.921570 
	C151.078018,342.064789 151.638641,336.516052 157.380692,331.701599 
	C160.393005,329.175903 159.697800,325.958466 160.229431,323.026489 
	C162.471466,310.661469 162.360870,310.688416 149.969421,309.353973 
	C145.177917,308.837921 140.421371,308.004974 135.636490,307.417572 
	C131.051636,306.854736 127.219482,305.666992 126.387459,300.140900 
	C125.565002,294.678375 128.624557,292.192474 132.970322,290.399445 
	C133.431107,290.209351 133.861526,289.945618 134.640900,289.551025 
z"/>
</svg>