<svg xmlns="http://www.w3.org/2000/svg" viewBox="0 0 12 12" id="contact-icon">
    <defs>
        <clipPath id="n7aeqkezpa">
            <path data-name="Rectangle 678" style="fill:none" d="M0 0h12v12H0z"/>
        </clipPath>
    </defs>
    <g data-name="Mask Group 62" style="clip-path:url(#n7aeqkezpa)">
        <g data-name="Group 12478">
            <path data-name="Path 8952" d="M-19.455 6360.431a6.817 6.817 0 0 0 1.8 2.165c.3.247.64.442.96.663a.183.183 0 0 0 .273-.038c.226-.235.455-.468.7-.684a.976.976 0 0 1 1.4.019q.7.667 1.367 1.371a1.02 1.02 0 0 1 .01 1.489c-.279.311-.571.613-.877.9a1.938 1.938 0 0 1-1.8.386 7.325 7.325 0 0 1-2.511-1.062 10.906 10.906 0 0 1-4.244-4.805 5.148 5.148 0 0 1-.467-1.626 1.868 1.868 0 0 1 .56-1.646c.232-.219.449-.455.676-.677a1.062 1.062 0 0 1 1.633-.013q.619.6 1.218 1.219a1.048 1.048 0 0 1 .014 1.615c-.22.24-.457.47-.712.724zm4.369 5.705a1.125 1.125 0 0 0 .953-.379c.212-.218.426-.436.64-.653.322-.329.325-.525.006-.848q-.584-.588-1.173-1.173a.445.445 0 0 0-.746 0c-.248.243-.49.492-.738.735a.46.46 0 0 1-.633.1 8.28 8.28 0 0 1-.974-.6 7.349 7.349 0 0 1-2.264-2.635.509.509 0 0 1 .141-.718c.234-.228.469-.454.7-.687a.439.439 0 0 0 0-.731q-.611-.623-1.232-1.234a.447.447 0 0 0-.722 0c-.26.25-.513.51-.768.767a1.133 1.133 0 0 0-.323.807 3.365 3.365 0 0 0 .294 1.382 10.193 10.193 0 0 0 5.14 5.4 4.349 4.349 0 0 0 1.699.467z" transform="translate(23.466 -6355.357)"/>
            <path data-name="Path 8953" d="M5.679 6353.177a13.153 13.153 0 0 1 1.386.458 5.788 5.788 0 0 1 3.441 4.3c.051.244-.023.4-.2.44-.2.048-.35-.067-.4-.328a5.2 5.2 0 0 0-1.665-2.939 5.23 5.23 0 0 0-2.5-1.247.533.533 0 0 1-.3-.159.362.362 0 0 1-.019-.311c.032-.091.154-.136.257-.214z" transform="translate(.961 -6352.716)"/>
            <path data-name="Path 8954" d="M8.125 6366.1a.293.293 0 0 1-.238.316.288.288 0 0 1-.356-.193c-.035-.092-.043-.192-.071-.288a2.926 2.926 0 0 0-2.18-2.132c-.055-.015-.111-.023-.165-.037a.311.311 0 0 1-.263-.353.29.29 0 0 1 .374-.249 6.046 6.046 0 0 1 1.184.439 3.438 3.438 0 0 1 1.691 2.335c.012.054.017.11.024.162z" transform="translate(1.393 -6360.661)"/>
        </g>
    </g>
</svg>
