<svg xmlns="http://www.w3.org/2000/svg" viewBox="0 0 12 12" id="home-icon">
    <defs>
        <clipPath id="ms799bym6a">
            <path data-name="Rectangle 392" style="fill:none" d="M0 0h12v12H0z"/>
        </clipPath>
    </defs>
    <g data-name="Mask Group 4" style="clip-path:url(#ms799bym6a)">
        <g data-name="Group 12474">
            <g data-name="Group 12475">
                <g data-name="Group 11266">
                    <path data-name="Path 5821" d="M699.778 524.167v4.669a1.079 1.079 0 0 1-1.152 1.164h-7.827a1.076 1.076 0 0 1-1.146-1.144v-4.681c-.1.09-.164.149-.228.211-.213.207-.428.232-.595.069s-.149-.387.057-.594q.587-.59 1.177-1.177 1.673-1.674 3.347-3.346a1.739 1.739 0 0 1 2.614 0q2.239 2.235 4.475 4.473a1.49 1.49 0 0 1 .128.136.363.363 0 0 1-.032.508.351.351 0 0 1-.49.018c-.106-.079-.192-.173-.328-.306zm-3.188 5.082h2.026c.294 0 .41-.116.41-.413v-5.27a.412.412 0 0 0-.106-.262q-1.732-1.746-3.477-3.48a.97.97 0 0 0-1.455.007q-1.736 1.728-3.46 3.464a.437.437 0 0 0-.116.281q-.01 2.624 0 5.247c0 .312.113.426.42.427h1.851a1.474 1.474 0 0 0 .165-.019v-2.915a1.165 1.165 0 0 1 1.188-1.187c.461 0 .921-.005 1.382 0a1.164 1.164 0 0 1 1.177 1.173c.007.7 0 1.405 0 2.108zm-.752-.01v-2.947a.407.407 0 0 0-.441-.416c-.421-.005-.843 0-1.264 0-.4 0-.54.141-.54.531v2.832z" transform="translate(-688.716 -518.307)"/>
                </g>
            </g>
        </g>
    </g>
</svg>
