<svg xmlns="http://www.w3.org/2000/svg" viewBox="0 0 14 14" id="linkchain">
    <defs>
        <clipPath id="zb866cjhya">
            <path data-name="Rectangle 552" transform="translate(0 .451)" style="fill:#797979" d="M0 0h14v14H0z"/>
        </clipPath>
    </defs>
    <g data-name="Group 62283">
        <g data-name="Group 11267" transform="translate(-.001 -.451)" style="clip-path:url(#zb866cjhya)">
            <g data-name="Group 61704">
                <path data-name="Path 25555" d="M-1588.817 260.423a2.741 2.741 0 0 1-2.482-1.737 2.734 2.734 0 0 1 .525-3.129 47.978 47.978 0 0 1 2.342-2.346 2.884 2.884 0 0 1 3.895-.025.749.749 0 0 1 .148 1.1.743.743 0 0 1-1.1 0 1.43 1.43 0 0 0-2.019.055q-1.085 1.059-2.144 2.144a1.436 1.436 0 0 0-.027 2.06 1.443 1.443 0 0 0 2.081-.015c.347-.334.68-.683 1.024-1.019a.72.72 0 0 1 1.06-.05.726.726 0 0 1-.041 1.081c-.35.357-.7.714-1.063 1.061a2.97 2.97 0 0 1-2.199.82z" transform="translate(1592.981 -247.362)"/>
                <path data-name="Path 25556" d="M-1522.44 203.782a2.8 2.8 0 0 1-1.971-.811.723.723 0 0 1-.062-1.039.735.735 0 0 1 1.043-.028 1.449 1.449 0 0 0 2.143-.082c.7-.692 1.4-1.383 2.081-2.086a1.379 1.379 0 0 0 .343-1.513 1.385 1.385 0 0 0-1.193-.955 1.4 1.4 0 0 0-1.209.43c-.337.331-.667.669-1 1a.729.729 0 0 1-1.1.063.731.731 0 0 1 .068-1.081c.345-.35.69-.7 1.042-1.041a2.9 2.9 0 0 1 4.082.011 2.892 2.892 0 0 1 .03 4.082c-.73.752-1.475 1.49-2.224 2.224a2.83 2.83 0 0 1-2.073.826z" transform="translate(1530.359 -194.351)" />
            </g>
        </g>
    </g>
</svg>
