<svg xmlns="http://www.w3.org/2000/svg" viewBox="0 0 14 14" id="ParkingAttendants">
    <defs>
        <clipPath id="fs5hs16wga">
            <path data-name="Rectangle 552" transform="translate(0 -.001)" style="fill:#797979" d="M0 0h14v14H0z"/>
        </clipPath>
    </defs>
    <g data-name="Group 62284">
        <g data-name="Group 11267" transform="translate(-.001 .001)" style="clip-path:url(#fs5hs16wga)">
            <g data-name="Group 61705">
                <path data-name="Path 25557" d="M-2072.906 429.521v4.165a1.145 1.145 0 0 1-1.285 1.293h-8.079a3.355 3.355 0 0 1-3.29-2.729 3.359 3.359 0 0 1 2.685-3.942c.209-.037.246-.118.246-.305q-.009-2.282 0-4.564a1.126 1.126 0 0 1 .9-1.2 1.573 1.573 0 0 1 .322-.024h5.486a.683.683 0 0 1 .527.222q1.13 1.145 2.275 2.275a.687.687 0 0 1 .217.531c-.007 1.418-.004 2.848-.004 4.278zm-7.232 4.709h5.934c.439 0 .547-.1.547-.541v-7.957c0-.088-.008-.176-.014-.281h-1.939c-.431 0-.539-.11-.54-.548v-1.671c0-.087-.009-.174-.014-.252a.463.463 0 0 0-.076-.02h-5.236c-.275 0-.4.148-.405.455v4.639c0 .148.032.221.2.245a3.319 3.319 0 0 1 1.392.574.689.689 0 0 0 .362.115c1.13.009 2.261.005 3.391.005h1.471c.333 0 .54.313.355.551a.6.6 0 0 1-.421.188c-1.338.014-2.676.008-4.014.008h-.235l.541 1.5h3.751c.351 0 .566.305.379.554a.569.569 0 0 1-.4.186c-.972.016-1.945.008-2.917.008h-.876a3.484 3.484 0 0 1-1.236 2.242zm.495-2.587a2.62 2.62 0 0 0-2.558-2.649 2.617 2.617 0 0 0-2.671 2.586 2.621 2.621 0 0 0 2.558 2.65 2.617 2.617 0 0 0 2.671-2.587zm4.262-6.955h1.1l-1.1-1.093z" transform="translate(2086.489 -421.818)" style="stroke:#bcbcbc;stroke-width:.2px"/>
                <path data-name="Path 25558" d="M-2044.937 458.187h2.641c.274 0 .439.139.445.363a.376.376 0 0 1-.423.385h-5.357c-.274 0-.439-.14-.445-.363s.163-.384.448-.385h2.691z" transform="translate(2053.683 -453.258)" style="stroke:#bcbcbc;stroke-width:.2px"/>
                <path data-name="Path 25559" d="M-2061.21 483.4h.585a.377.377 0 0 1 .409.373.376.376 0 0 1-.409.373q-.46.009-.92 0a.369.369 0 0 1-.41-.4q-.014-.721 0-1.443a.372.372 0 0 1 .381-.4.371.371 0 0 1 .361.4c.013.357.003.713.003 1.097z" transform="translate(2065.815 -473.984)" style="stroke:#bcbcbc;stroke-width:.2px"/>
            </g>
        </g>
    </g>
</svg>
