<svg xmlns="http://www.w3.org/2000/svg" viewBox="0 0 14 14" id="smstamplate">
    <defs>
        <clipPath id="g5vasdvbva">
            <path data-name="Rectangle 553" transform="translate(0 .451)" style="fill:#797979;stroke:#707070" d="M0 0h14v14H0z"/>
        </clipPath>
    </defs>
    <g data-name="Group 62281">
        <g data-name="Group 11274" transform="translate(0 -.451)" style="clip-path:url(#g5vasdvbva)">
            <g data-name="Group 11273">
                <path data-name="Path 5826" d="M733.094 528.875a2.352 2.352 0 0 1-.372-.248q-1.134-1.119-2.255-2.253c-.283-.286-.285-.46 0-.743.756-.764 1.519-1.521 2.279-2.282a.447.447 0 0 1 .722.008q1.138 1.142 2.28 2.281a.444.444 0 0 1 0 .72c-.771.767-1.536 1.539-2.31 2.3a1.988 1.988 0 0 1-.344.217zm1.756-2.824-1.775-1.775-1.733 1.724 1.775 1.779z" transform="translate(-721.815 -518.778)" style="stroke:#bcbcbc;stroke-width:.05px"/>
                <path data-name="Path 5827" d="M725.723 530.5a2.465 2.465 0 0 1 .255-.388q1.118-1.134 2.251-2.255c.3-.294.465-.29.771.013q1.118 1.108 2.226 2.226c.291.294.291.48 0 .774q-1.109 1.12-2.226 2.23c-.309.307-.478.3-.8-.014l-2.2-2.2a3.519 3.519 0 0 1-.277-.386zm2.909-1.752-1.728 1.725 1.749 1.761 1.737-1.737z" transform="translate(-721.377 -519.21)" style="stroke:#bcbcbc;stroke-width:.05px"/>
                <path data-name="Path 5828" d="M731.485 521.505a1.981 1.981 0 0 1-.225.36q-1.131 1.148-2.277 2.282c-.284.28-.459.278-.744 0q-1.133-1.12-2.254-2.254c-.276-.278-.279-.471-.008-.745.756-.764 1.52-1.52 2.278-2.283a.442.442 0 0 1 .719 0c.758.762 1.521 1.519 2.276 2.284a2.214 2.214 0 0 1 .235.356zm-4.632-.028 1.76 1.766 1.723-1.716-1.765-1.777z" transform="translate(-721.382 -518.343)" style="stroke:#bcbcbc;stroke-width:.05px"/>
                <path data-name="Path 5829" d="M724.114 523.114a2.227 2.227 0 0 1 .369.234q1.148 1.133 2.282 2.279c.278.281.275.458-.01.745q-1.12 1.133-2.253 2.254c-.276.273-.472.273-.746 0q-1.131-1.122-2.253-2.253c-.292-.3-.29-.468.009-.77q1.109-1.116 2.228-2.225a2.853 2.853 0 0 1 .374-.264zm1.746 2.915-1.723-1.729-1.752 1.735 1.734 1.738z" transform="translate(-720.947 -518.772)" style="stroke:#bcbcbc;stroke-width:.05px"/>
            </g>
        </g>
    </g>
</svg>
