<svg xmlns="http://www.w3.org/2000/svg" viewBox="0 0 14 14" id="sms">
    <defs>
        <clipPath id="o5x206yx4a">
            <path data-name="Rectangle 552" style="fill:#797979" d="M0 0h14v14H0z"/>
        </clipPath>
    </defs>
    <g data-name="Group 62282">
        <g data-name="Group 11267" transform="translate(-.001)" style="clip-path:url(#o5x206yx4a)">
            <g data-name="Group 61703">
                <path data-name="Path 25552" d="M-1047.113 312.836h3.561a2 2 0 0 1 2.109 2.108v3.864a2 2 0 0 1-2.128 2.115h-2.526a1.37 1.37 0 0 0-.866.289q-1.3.986-2.6 1.961c-.155.117-.312.242-.526.14s-.255-.306-.251-.53c.009-.463 0-.926 0-1.389 0-.329-.128-.455-.455-.47a2 2 0 0 1-1.97-2.045q-.006-2 0-3.991a2 2 0 0 1 2.064-2.051c1.201-.004 2.392-.001 3.588-.001zm-2.416 9.29.282-.2 1.753-1.324a2.293 2.293 0 0 1 1.454-.488c.825.011 1.651 0 2.476 0a1.2 1.2 0 0 0 1.311-1.3v-3.866a1.2 1.2 0 0 0-1.306-1.3h-7.1a1.2 1.2 0 0 0-1.3 1.288v3.891a1.2 1.2 0 0 0 1.245 1.29 1.189 1.189 0 0 1 1.179 1.2c.01.251.005.503.005.808z" transform="translate(1054.169 -311.126)"/>
                <path data-name="Path 25553" d="M-1036.41 326.761h-2.727c-.333 0-.5-.133-.5-.4s.161-.41.488-.41h5.48c.333 0 .5.133.5.4s-.165.41-.513.411z" transform="translate(1043.468 -321.816)"/>
                <path data-name="Path 25554" d="M-1036.4 339.064h2.778c.334 0 .525.226.444.516-.066.235-.243.295-.468.294h-5.53c-.3 0-.463-.155-.456-.416s.165-.391.455-.392c.921-.004 1.847-.002 2.777-.002z" transform="translate(1043.469 -332.502)"/>
            </g>
        </g>
    </g>
</svg>
