<svg xmlns="http://www.w3.org/2000/svg" viewBox="0 0 14 14" id="userslist">
    <defs>
        <clipPath id="07d0y2m8pa">
            <path data-name="Rectangle 552" transform="translate(0 .451)" style="fill:#797979" d="M0 0h14v14H0z"/>
        </clipPath>
    </defs>
    <g data-name="Group 62280">
        <g data-name="Group 11267" transform="translate(-.001 -.451)" style="clip-path:url(#07d0y2m8pa)">
            <g data-name="Group 61700">
                <path data-name="Path 25543" d="M653.234 333a.93.93 0 0 1 .937 1.078v1.425a.854.854 0 0 1-.518.834.482.482 0 0 0-.324.445.474.474 0 0 0 .317.449.865.865 0 0 1 .525.855v1.527a.883.883 0 0 1-.941.94h-11.153a.883.883 0 0 1-.944-.937v-1.527a.863.863 0 0 1 .523-.855.472.472 0 0 0 0-.895.865.865 0 0 1-.521-.857v-1.5a.868.868 0 0 1 .947-.952.987.987 0 0 0 .814-.343c1.581-1.6 3.176-3.185 4.766-4.775a.924.924 0 0 1 1.512-.007c.324.324.645.651.973.971a.891.891 0 0 1 .247 1.019.465.465 0 0 0 .615.613.9.9 0 0 1 1.037.266c.314.322.636.637.953.955a.952.952 0 0 1 .235 1.271zm-2.542 6.787v-6h-8.494c-.2 0-.314.034-.305.275.017.457 0 .916.012 1.374a.347.347 0 0 0 .153.244 1.245 1.245 0 0 1 0 2.224.346.346 0 0 0-.15.246c-.015.44.008.882-.013 1.322-.012.265.083.326.335.325 2.731-.008 5.463-.005 8.195-.005zm-3.81-10.012c1.062 1.063 2.1 2.107 3.153 3.145a.423.423 0 0 0 .269.093c.441.009.885-.026 1.322.013a.941.941 0 0 0 .874-.38c.114-.135.119-.217-.006-.338-.335-.324-.656-.663-1-.982a.355.355 0 0 0-.283-.075 1.235 1.235 0 0 1-1.564-1.589.274.274 0 0 0-.039-.222q-.528-.551-1.08-1.078a.232.232 0 0 0-.227 0c-.47.456-.934.926-1.418 1.41zm4.621 4.009v6h1.7c.159 0 .2-.074.2-.219 0-.483.005-.967-.008-1.45a.321.321 0 0 0-.15-.222 1.242 1.242 0 0 1 0-2.221.322.322 0 0 0 .153-.22c.014-.492.005-.984.008-1.475 0-.14-.06-.2-.2-.2-.559.006-1.118.004-1.706.004zm-2.561-.784-2.6-2.6-2.605 2.6z" transform="translate(-640.426 -326.804)"/>
                <path data-name="Path 25544" d="M660.162 378.756h5.713v.743h-5.713z" transform="translate(-656.748 -370.755)"/>
                <path data-name="Path 25545" d="M660.151 389.562h5.716v.738h-5.716z" transform="translate(-656.738 -380.023)"/>
                <path data-name="Path 25546" d="M660.114 401.082v-.732h5.717v.732z" transform="translate(-656.706 -389.275)"/>
            </g>
        </g>
    </g>
</svg>
