<svg xmlns="http://www.w3.org/2000/svg" id="DownloadIcon">
    <defs>
        <clipPath id="dwh4r9f21a">
            <path data-name="Rectangle 1024" transform="translate(-.138)" style="fill:none" d="M0 0h10v10H0z"/>
        </clipPath>
    </defs>
    <g data-name="Mask Group 189" transform="translate(.139)" style="clip-path:url(#dwh4r9f21a)">
        <g data-name="Group 13431">
            <path data-name="Path 9298" d="M343.334 18.117c.82-.826 1.552-1.565 2.286-2.3a1.873 1.873 0 0 1 .278-.252.558.558 0 0 1 .755.058.565.565 0 0 1 .067.784 1.351 1.351 0 0 1-.176.195q-1.569 1.571-3.139 3.14a.869.869 0 0 1-1.348 0q-1.6-1.594-3.193-3.192c-.2-.2-.338-.451-.186-.705a.785.785 0 0 1 .5-.366.877.877 0 0 1 .577.27c.776.748 1.53 1.519 2.37 2.36v-6.381a.6.6 0 0 1 .6-.6.591.591 0 0 1 .6.6c.015.426.005.853.005 1.279v5.108z" transform="translate(-337.867 -10.594)"/>
        </g>
    </g>
</svg>
