<svg xmlns="http://www.w3.org/2000/svg" viewBox="0 0 10 10" id="ActivitiesIcon">
    <defs>
        <clipPath id="lvc4vko9za">
            <path data-name="Rectangle 817" transform="translate(-.138)" style="fill:none" d="M0 0h10v10H0z"/>
        </clipPath>
    </defs>
    <g data-name="Mask Group 101" transform="translate(.138)" style="clip-path:url(#lvc4vko9za)">
        <g data-name="Group 12752">
            <path data-name="Path 9062" d="M1445.5-995.889h.4V-999.97c0-.279.051-.332.326-.332h1.749c.285 0 .334.051.334.343v4.07h.4v-5.261c0-.317.039-.355.357-.356h1.731c.263 0 .321.058.321.321V-995.891c.074.006.128.011.183.014.124.006.205.063.207.193s-.085.2-.218.2h-8.259c-.05 0-.114.018-.148-.006-.072-.051-.164-.115-.184-.19-.029-.11.054-.185.173-.2.061-.006.123-.008.21-.013v-2.879c0-.273.057-.329.332-.329h1.769c.253 0 .308.056.308.31v2.672zm3.626-5.2v5.2h1.583v-5.2zm-1.234 5.2v-4h-1.572v4zm-4.385-2.795v2.791h1.583v-2.791z" transform="translate(-1442.202 1004.96)"/>
            <path data-name="Path 9063" d="M1450.957-1009.109c-.085.068-.132.1-.178.142a15.467 15.467 0 0 1-7.8 3.47c-.138.02-.257 0-.289-.159-.028-.139.063-.218.26-.246a15 15 0 0 0 7.672-3.464c.029-.025.057-.049.084-.075a.408.408 0 0 0 .035-.064h-1.017c-.134 0-.219-.069-.214-.206a.188.188 0 0 1 .214-.188h1.538c.2.007.274.1.227.294-.121.505-.25 1.009-.377 1.513-.033.13-.108.226-.253.187s-.173-.157-.135-.3c.084-.285.15-.571.233-.904z" transform="translate(-1442.193 1010.551)"/>
        </g>
    </g>
</svg>
