<svg xmlns="http://www.w3.org/2000/svg" viewBox="0 0 10 10" id="FeedImg">
    <defs>
        <clipPath id="tiprnn212a">
            <path data-name="Rectangle 817" transform="translate(-.138)" style="fill:none" d="M0 0h10v10H0z"/>
        </clipPath>
    </defs>
    <g data-name="Mask Group 101" transform="translate(.138)" style="clip-path:url(#tiprnn212a)">
        <g data-name="Group 12751">
            <path data-name="Path 9053" d="M1080.07-911.135v3.369c0 .34-.1.439-.443.44h-6.758c-.343 0-.439-.1-.439-.443v-6.758c0-.344.1-.439.442-.439h6.758c.34 0 .439.1.439.443l.001 3.388zm-6.984-3.183v6.336h6.327v-6.336z" transform="translate(-1070.668 915.52)"/>
            <path data-name="Path 9054" d="M1066.339-901.223h6.516a1.114 1.114 0 0 1 .2 0 .3.3 0 0 1 .275.316.3.3 0 0 1-.275.317.954.954 0 0 1-.18 0h-6.716c-.37 0-.463-.092-.463-.458v-6.836a.319.319 0 0 1 .316-.341.322.322 0 0 1 .326.351v6.642z" transform="translate(-1065.281 910.12)"/>
            <path data-name="Path 9055" d="M1083.251-906.215h1.624c.278 0 .419.108.422.315s-.143.327-.413.327h-3.309c-.285 0-.463-.17-.408-.388a.336.336 0 0 1 .379-.255c.568.003 1.136.001 1.705.001z" transform="translate(-1077.65 908.52)"/>
            <path data-name="Path 9056" d="M1083.249-888.719h1.661c.254 0 .395.117.393.321s-.143.321-.4.321h-3.342c-.244 0-.4-.131-.4-.326s.149-.315.4-.316h1.688z" transform="translate(-1077.657 894.523)"/>
            <path data-name="Path 9057" d="M1083.227-896.85h-1.661c-.251 0-.4-.122-.4-.319s.154-.323.4-.323h3.342c.253 0 .394.12.4.324s-.138.317-.4.318c-.561.002-1.121 0-1.681 0z" transform="translate(-1077.657 901.541)"/>
        </g>
    </g>
</svg>
