<svg xmlns="http://www.w3.org/2000/svg" viewBox="0 0 10 10" id="FollowerIcon">
    <defs>
        <clipPath id="sw5h2b2l6a">
            <path data-name="Rectangle 817" transform="translate(-.138)" style="fill:none" d="M0 0h10v10H0z"/>
        </clipPath>
    </defs>
    <g data-name="Mask Group 101" transform="translate(.138)" style="clip-path:url(#sw5h2b2l6a)">
        <g data-name="Group 12787">
            <path data-name="Path 9111" d="M1268.953-4539.627a2.034 2.034 0 0 1-.518-3.069 2.034 2.034 0 0 1 2.967-.125 2.041 2.041 0 0 1-.382 3.189c.229.094.465.173.683.284a3.291 3.291 0 0 1 1.892 2.553 6.816 6.816 0 0 1 .026.89c0 .122-.079.215-.19.193a.333.333 0 0 1-.2-.185.771.771 0 0 1-.011-.307 2.965 2.965 0 0 0-2.273-3 3.336 3.336 0 0 0-3.407.869 2.724 2.724 0 0 0-.812 1.968v.438c0 .147-.067.23-.2.229s-.194-.1-.2-.232a3.431 3.431 0 0 1 2.492-3.642c.033-.016.071-.026.133-.053zm1.016-.133a1.625 1.625 0 0 0 1.63-1.612 1.631 1.631 0 0 0-1.618-1.628 1.621 1.621 0 0 0-1.625 1.616 1.611 1.611 0 0 0 1.613 1.624z" transform="translate(-1266.127 4544.553)"/>
            <path data-name="Path 9112" d="M1290.342-4537.519a8.826 8.826 0 0 1 .939.587 2.609 2.609 0 0 1 .95 2.345.191.191 0 0 1-.207.2c-.133 0-.187-.089-.2-.217a5.271 5.271 0 0 0-.064-.831 2.346 2.346 0 0 0-2.151-1.77c-.066 0-.134 0-.2-.012-.119-.014-.213-.062-.216-.2s.086-.192.207-.208c.078-.01.158-.009.235-.025a1.213 1.213 0 0 0 .962-1.277 1.2 1.2 0 0 0-1.115-1.124.8.8 0 0 1-.09-.007c-.122-.021-.206-.081-.2-.215a.181.181 0 0 1 .224-.183 2.555 2.555 0 0 1 .633.142 1.61 1.61 0 0 1 .445 2.65c-.05.064-.111.109-.152.145z" transform="translate(-1282.704 4542.417)"/>
        </g>
    </g>
</svg>
