<svg xmlns="http://www.w3.org/2000/svg" viewBox="0 0 10 10" id="settingIcon">
    <defs>
        <clipPath id="nryma092ca">
            <path data-name="Rectangle 817" transform="translate(-.138)" style="fill:none" d="M0 0h10v10H0z"/>
        </clipPath>
    </defs>
    <g data-name="Mask Group 101" transform="translate(.138)" style="clip-path:url(#nryma092ca)">
        <g data-name="Group 12783">
            <path data-name="Path 9109" d="M1623.7-4630.228c-.53 0-1.06.006-1.59 0a1.38 1.38 0 0 1-1.237-.711q-.809-1.378-1.6-2.768a1.363 1.363 0 0 1 0-1.424q.787-1.381 1.589-2.752a1.383 1.383 0 0 1 1.251-.719q1.581-.01 3.162 0a1.383 1.383 0 0 1 1.251.719q.8 1.371 1.589 2.752a1.376 1.376 0 0 1 0 1.442q-.784 1.371-1.58 2.735a1.4 1.4 0 0 1-1.266.728c-.522.002-1.046-.002-1.569-.002zm.006-.6h1.571a.8.8 0 0 0 .73-.41q.8-1.38 1.6-2.767a.786.786 0 0 0 0-.82q-.792-1.387-1.6-2.767a.8.8 0 0 0-.727-.415h-3.161a.807.807 0 0 0-.739.426q-.792 1.365-1.579 2.734a.808.808 0 0 0 0 .853q.787 1.368 1.579 2.735a.82.82 0 0 0 .755.431z" transform="translate(-1618.837 4639.417)"/>
            <path data-name="Path 9110" d="M1634.295-4623.923a1.759 1.759 0 0 1 1.772-1.764 1.759 1.759 0 0 1 1.764 1.771 1.761 1.761 0 0 1-1.772 1.764 1.761 1.761 0 0 1-1.764-1.771zm1.767-1.164a1.161 1.161 0 0 0-1.168 1.159 1.162 1.162 0 0 0 1.169 1.177 1.162 1.162 0 0 0 1.168-1.16 1.161 1.161 0 0 0-1.169-1.176z" transform="translate(-1631.201 4628.918)"/>
        </g>
    </g>
</svg>
